<?xml version="1.0" encoding="UTF-8" standalone="no"?>
<!-- Generator: Adobe Illustrator 18.0.0, SVG Export Plug-In . SVG Version: 6.00 Build 0)  -->

<svg
   version="1.1"
   id="Layer_1"
   x="0px"
   y="0px"
   viewBox="0 0 82.9 76.3"
   enable-background="new 0 0 82.9 76.3"
   xml:space="preserve"
   sodipodi:docname="donation.svg"
   inkscape:version="1.2.2 (732a01da63, 2022-12-09)"
   xmlns:inkscape="http://www.inkscape.org/namespaces/inkscape"
   xmlns:sodipodi="http://sodipodi.sourceforge.net/DTD/sodipodi-0.dtd"
   xmlns="http://www.w3.org/2000/svg"
   xmlns:svg="http://www.w3.org/2000/svg"><defs
   id="defs6204" /><sodipodi:namedview
   id="namedview6202"
   pagecolor="#ffffff"
   bordercolor="#000000"
   borderopacity="0.25"
   inkscape:showpageshadow="2"
   inkscape:pageopacity="0.0"
   inkscape:pagecheckerboard="0"
   inkscape:deskcolor="#d1d1d1"
   showgrid="false"
   inkscape:zoom="7.7568591"
   inkscape:cx="21.01366"
   inkscape:cy="39.964629"
   inkscape:window-width="1920"
   inkscape:window-height="1017"
   inkscape:window-x="1912"
   inkscape:window-y="-8"
   inkscape:window-maximized="1"
   inkscape:current-layer="Layer_1" />
<g
   id="g6199"
   transform="matrix(1.0353685,0,0,1.0353685,-0.89657089,-1.3493067)"
   style="fill:#2f5b39;fill-opacity:1">
	<path
   fill="#4e4f50"
   d="m 64.6,15.4 c -4.1,2.4 -7.1,3.8 -9.4,3.4 2.5,-1.1 6.9,-3.4 9.3,-8.8 0.2,-0.4 -1.1,-1 -1.5,-1.2 -0.4,-0.2 -0.9,0 -1.1,0.4 -1.8,4.2 -4.2,6.4 -6.3,7.5 2.4,-4.4 3.8,-10.4 3.8,-15 H 41.3 22.4 c 0,5.8 2.4,14.2 6.1,18.2 h 24.8 c 0,0 0,0 0,0 1,0.3 2.2,0.5 3.7,0.5 2.4,0 5.4,-0.6 8.8,-2.6 0.4,-0.2 0.1,-1.9 -0.1,-2.3 -0.2,-0.2 -0.7,-0.3 -1.1,-0.1 z"
   id="path6195"
   style="fill:#2f5b39;fill-opacity:1" />
	<path
   fill="#4e4f50"
   d="m 53.6,21.9 h -0.2 -25 -0.2 C 15.5,27 6.4,39.4 6.4,53.9 c 0,19 15.4,20.7 34.5,20.7 19,0 34.5,-1.6 34.5,-20.7 0,-14.5 -9.1,-26.9 -21.8,-32 z m -3.3,31.2 c -0.4,4.2 -3.9,6.7 -7.1,7 v 4.4 H 39 v -4.1 c 0,0 -4.8,-0.3 -7.6,-2 l 1.6,-5 c 0,0 1.9,1 4.1,1.5 2.2,0.5 6.1,0.3 6.6,-1.8 0.5,-2 -0.9,-2.8 -3.6,-3.6 -2.7,-0.8 -7.5,-3 -8,-6.7 -0.5,-4 1.4,-7.2 6.8,-8.3 v -4.3 h 4.3 v 3.7 c 0,0 4.4,0.3 6,1.4 l -1,4.6 c 0,0 -4.1,-1.4 -6.9,-1.2 -2.8,0.2 -3,3.1 -1,4.3 2.4,1.5 5.8,2.6 7,3.2 1,0.8 3.4,2.8 3,6.9 z"
   id="path6197"
   style="fill:#2f5b39;fill-opacity:1" />
</g>
</svg>
