<?xml version="1.0" encoding="UTF-8" standalone="no"?>
<!-- Uploaded to: SVG Repo, www.svgrepo.com, Generator: SVG Repo Mixer Tools -->

<svg
   fill="#000000"
   width="800px"
   height="800px"
   viewBox="0 0 32 32"
   version="1.1"
   id="svg6"
   sodipodi:docname="downlaod.svg"
   inkscape:version="1.2.2 (b0a8486541, 2022-12-01)"
   xmlns:inkscape="http://www.inkscape.org/namespaces/inkscape"
   xmlns:sodipodi="http://sodipodi.sourceforge.net/DTD/sodipodi-0.dtd"
   xmlns="http://www.w3.org/2000/svg"
   xmlns:svg="http://www.w3.org/2000/svg">
  <defs
     id="defs10" />
  <sodipodi:namedview
     id="namedview8"
     pagecolor="#ffffff"
     bordercolor="#666666"
     borderopacity="1.0"
     inkscape:showpageshadow="2"
     inkscape:pageopacity="0.0"
     inkscape:pagecheckerboard="0"
     inkscape:deskcolor="#d1d1d1"
     showgrid="false"
     inkscape:zoom="5.9184838"
     inkscape:cx="2.5344329"
     inkscape:cy="845.14889"
     inkscape:window-width="1920"
     inkscape:window-height="1017"
     inkscape:window-x="1912"
     inkscape:window-y="48"
     inkscape:window-maximized="1"
     inkscape:current-layer="svg6" />
  <title
     id="title2">download</title>
  <path
     d="M 26.156802,12.21989 H 20.399775 V 1.6543559 c 0,-0.90209225 -0.66982,-1.65196641 -1.472462,-1.65196641 h -5.757028 c -0.848344,0 -1.518165,0.75147644 -1.518165,1.65196641 V 12.21989 H 5.8950944 c -0.758368,0 -1.0268674,0.55119 -0.447023,1.201723 L 14.999794,24.08649 c 0.2685,0.30123 0.625548,0.450244 1.026868,0.450244 0.401321,0 0.80407,-0.150616 1.071143,-0.450244 L 26.603824,13.421613 C 27.139395,12.77108 26.960872,12.21989 26.156802,12.21989 Z M 0.00238949,19.781121 v 11.416355 c 0,0.501517 0.22279737,0.801146 0.71409412,0.801146 H 31.244008 c 0.491297,0 0.758368,-0.301231 0.758368,-0.801146 V 19.781121 c 0,-0.501519 -0.357047,-0.850818 -0.758368,-0.850818 h -2.90065 c -0.401321,0 -0.758368,0.400574 -0.758368,0.850818 v 7.260001 H 4.3769301 v -7.260001 c 0,-0.501519 -0.3127731,-0.850818 -0.7140941,-0.850818 H 0.71648361 c -0.40132089,0 -0.71409412,0.400574 -0.71409412,0.850818 z"
     id="path4"
     style="stroke-width:1.51274" />
</svg>
