<?xml version="1.0" encoding="UTF-8" standalone="no"?>
<svg
   version="1.1"
   id="rocket-15"
   width="15px"
   height="15px"
   viewBox="0 0 15 15"
   sodipodi:docname="raid.svg"
   inkscape:version="1.2.2 (732a01da63, 2022-12-09)"
   xmlns:inkscape="http://www.inkscape.org/namespaces/inkscape"
   xmlns:sodipodi="http://sodipodi.sourceforge.net/DTD/sodipodi-0.dtd"
   xmlns="http://www.w3.org/2000/svg"
   xmlns:svg="http://www.w3.org/2000/svg">
  <defs
     id="defs6183" />
  <sodipodi:namedview
     id="namedview6181"
     pagecolor="#ffffff"
     bordercolor="#000000"
     borderopacity="0.25"
     inkscape:showpageshadow="2"
     inkscape:pageopacity="0.0"
     inkscape:pagecheckerboard="0"
     inkscape:deskcolor="#d1d1d1"
     showgrid="false"
     inkscape:zoom="39.456558"
     inkscape:cx="1.774103"
     inkscape:cy="8.7691379"
     inkscape:window-width="1920"
     inkscape:window-height="1017"
     inkscape:window-x="1912"
     inkscape:window-y="-8"
     inkscape:window-maximized="1"
     inkscape:current-layer="rocket-15" />
  <path
     id="path7143"
     d="m 13.216649,0.13058225 c -2.451879,0 -5.7418641,1.68215785 -7.9511972,4.57418865 H 3.4339467 c -1.3234271,0 -2.0819419,0.987796 -2.60419989,2.0324263 L 0.13058209,8.1354123 H 1.781178 3.4339467 l 1.7153207,1.7153207 1.7153208,1.71532 v 1.652769 1.650596 l 1.398215,-0.69905 C 9.3074336,13.647995 10.29523,12.88948 10.29523,11.566053 V 9.7345486 c 0.718352,-0.5487767 1.362057,-1.1642271 1.923879,-1.816946 1.700029,-1.975078 2.650309,-4.291395 2.650309,-6.1342516 V 0.13058225 Z M 10.29523,3.5612237 c 0.631581,0 1.143547,0.5119661 1.143547,1.1435472 v 0 c 0,0.6315811 -0.511966,1.1435471 -1.143547,1.1435471 v 0 c -0.6315815,0 -1.1435476,-0.511966 -1.1435476,-1.1435471 v 0 c 0,-0.6315811 0.5119661,-1.1435472 1.1435476,-1.1435472 z M 2.8621732,10.422507 2.2903996,10.99428 c -0.8258698,0.82587 -1.1435472,2.858868 -1.1435472,2.858868 0,0 1.9417431,-0.226423 2.8588679,-1.143548 l 0.5717736,-0.571773 z"
     style="stroke-width:1.14355;fill:#800000"
     sodipodi:nodetypes="scscccccccccscsscssssssssscscscc" />
</svg>
