<?xml version="1.0" encoding="UTF-8" standalone="no"?>
<svg
   width="18px"
   height="17px"
   viewBox="0 0 18 17"
   version="1.1"
   id="svg3497"
   sodipodi:docname="sub.svg"
   inkscape:version="1.2.2 (732a01da63, 2022-12-09)"
   xmlns:inkscape="http://www.inkscape.org/namespaces/inkscape"
   xmlns:sodipodi="http://sodipodi.sourceforge.net/DTD/sodipodi-0.dtd"
   xmlns="http://www.w3.org/2000/svg"
   xmlns:svg="http://www.w3.org/2000/svg">
  <defs
     id="defs3501" />
  <sodipodi:namedview
     id="namedview3499"
     pagecolor="#ffffff"
     bordercolor="#000000"
     borderopacity="0.25"
     inkscape:showpageshadow="2"
     inkscape:pageopacity="0.0"
     inkscape:pagecheckerboard="0"
     inkscape:deskcolor="#d1d1d1"
     showgrid="false"
     inkscape:zoom="34.81461"
     inkscape:cx="2.7000159"
     inkscape:cy="8.9617548"
     inkscape:window-width="1920"
     inkscape:window-height="1017"
     inkscape:window-x="1912"
     inkscape:window-y="-8"
     inkscape:window-maximized="1"
     inkscape:current-layer="g3491" />
  <!-- Generator: Sketch 52.5 (67469) - http://www.bohemiancoding.com/sketch -->
  <title
     id="title3485">star</title>
  <desc
     id="desc3487">Created with Sketch.</desc>
  <g
     id="Icons"
     stroke="none"
     stroke-width="1"
     fill="none"
     fill-rule="evenodd"
     transform="matrix(1.0275268,0,0,1.0275268,-0.29082618,-0.20465546)">
    <g
       id="Rounded"
       transform="translate(-273,-4323)">
      <g
         id="Toggle"
         transform="translate(100,4266)">
        <g
           id="-Round-/-Toggle-/-star"
           transform="translate(170.04193,53.751004)">
          <g
             id="g3491">
            <polygon
               id="Path"
               fill-rule="nonzero"
               points="0,0 24,0 24,24 0,24 " />
            <path
               d="m 12,17.27 4.15,2.51 c 0.76,0.46 1.69,-0.22 1.49,-1.08 l -1.1,-4.72 3.67,-3.18 C 20.88,10.22 20.52,9.12 19.64,9.05 L 14.81,8.64 12.92,4.18 c -0.34,-0.81 -1.5,-0.81 -1.84,0 L 9.19,8.63 4.36,9.04 C 3.48,9.11 3.12,10.21 3.79,10.79 l 3.67,3.18 -1.1,4.72 c -0.2,0.86 0.73,1.54 1.49,1.08 z"
               id="🔹-Icon-Color"
               fill="#1d1d1d"
               style="fill:#d49f00;fill-opacity:1" />
          </g>
        </g>
      </g>
    </g>
  </g>
</svg>
